<svg xmlns="http://www.w3.org/2000/svg" viewBox="0 0 229.79 224.33"><title>GuardLogix-Icon-001-01</title><path d="M781.32,603.32c21.16,0,38.3,16.74,38.3,37.39,0,20.64-17.14,37.38-38.3,37.38-21.15,0-38.3-16.74-38.3-37.38C743.02,620.06,760.17,603.32,781.32,603.32Z" transform="translate(-666.43 -528.54)" fill="#4e3895"/><path d="M718.58,683.6q-13.65,13.395-27.31,26.77a110.0874,110.0874,0,0,1-1.16-137.87,113.5825,113.5825,0,0,1,21.54-20.98,117.1135,117.1135,0,0,1,140.81,1.1q-13.74,13.455-27.32,26.75a78.1627,78.1627,0,0,0-86.76-.59,76.185,76.185,0,0,0-21.33,21.23,73.36,73.36,0,0,0,1.53,83.59Z" transform="translate(-666.43 -528.54)" fill="#4e3895"/><path d="M896.22,640.71a110.0549,110.0549,0,0,1-26.82,72.01,113.8974,113.8974,0,0,1-22.45,20.06,117.2021,117.2021,0,0,1-133.78-1.77q13.785-13.5,27.5-26.92a78.2506,78.2506,0,0,0,79.32,1.17,76.2982,76.2982,0,0,0,22.72-19.81,73.388,73.388,0,0,0,3.47-84.55q13.71-13.455,27.49-26.95A109.9752,109.9752,0,0,1,896.22,640.71Z" transform="translate(-666.43 -528.54)" fill="#4e3895"/><path d="M857.8352,640.7036c0,41.247-34.2513,74.7-76.5358,74.7-42.2646,0-76.5358-33.4531-76.5358-74.7,0-41.2668,34.2712-74.72,76.5358-74.72C823.5839,565.9836,857.8352,599.4368,857.8352,640.7036Z" transform="translate(-666.43 -528.54)" fill="#fff"/><path d="M819.62,640.71c0,20.64-17.14,37.38-38.3,37.38-21.15,0-38.3-16.74-38.3-37.38,0-20.65,17.15-37.39,38.3-37.39C802.48,603.32,819.62,620.06,819.62,640.71Z" transform="translate(-666.43 -528.54)" fill="#4e3895"/></svg>