<svg xmlns="http://www.w3.org/2000/svg" viewBox="0 0 1205.8262 226.3323"><defs><style>.a,.c{fill:#4e3895;}.a,.b,.c,.d{stroke:#231f20;stroke-width:2px;}.a,.b,.d{stroke-miterlimit:10;}.b{fill:#fff;}.d{fill:#e75f26;}</style></defs><title>GuardLogix-Logo-002-03</title><ellipse class="a" cx="115.8979" cy="113.1662" rx="114.8979" ry="112.1662"/><ellipse class="b" cx="115.8979" cy="113.1662" rx="76.5986" ry="74.7774"/><ellipse class="a" cx="115.8979" cy="113.1662" rx="38.2993" ry="37.3887"/><path class="c" d="M349.3779,421.7393q-26.2676,0-43.3042-15.7413-17.0419-15.7381-17.039-42.8427,0-25.8033,16.1245-42.5181,16.1227-16.7124,43.2212-16.7153a67.8714,67.8714,0,0,1,25.6,5.0307,57.1246,57.1246,0,0,1,21.2783,14.7681l-16.6235,13.6318A42.6949,42.6949,0,0,0,348.38,325.5059q-14.9612,0-24.9351,10.2236t-9.9741,27.4258q0,16.2289,9.8076,26.9394t26.0991,10.71a46.158,46.158,0,0,0,23.9375-6.4912V377.2744H346.7183V357.8h49.039V407.459q-8.1467,6.4921-20.6133,10.3857A85.9041,85.9041,0,0,1,349.3779,421.7393Z" transform="translate(-18.7642 -249.628)"/><path class="c" d="M469.8965,341.4092h21.7773v79.1943H469.8965v-9.7373h-.3325q-9.3114,11.0376-24.104,11.0352-29.7583,0-29.7559-32.7813V341.4092h21.61V383.44q0,10.711,3.4082,15.0928,3.405,4.3813,11.2207,4.3818a16.19,16.19,0,0,0,12.7168-6.0859q5.2368-6.0864,5.2363-16.959Z" transform="translate(-18.7642 -249.628)"/><path class="c" d="M570.9668,341.4092h21.61v79.1943H571.9639v-9.5742h-.4981q-8.4784,10.8735-24.27,10.8721-16.9555,0-27.8447-11.2784t-10.8877-29.4541q0-17.85,10.8877-29.4545,10.8867-11.6008,27.3457-11.6031,15.126,0,23.7715,10.2237h.499ZM551.1846,402.915a19.8637,19.8637,0,0,0,14.6289-6.0048q5.9853-6.0015,5.9844-15.5791,0-9.5743-5.8184-15.9034a19.03,19.03,0,0,0-14.6279-6.3291,20.1282,20.1282,0,0,0-14.962,6.085q-5.9838,6.0864-5.9843,16.1475,0,9.577,5.8183,15.5791Q542.0406,402.9161,551.1846,402.915Z" transform="translate(-18.7642 -249.628)"/><path class="c" d="M660.4,340.1113a5.0372,5.0372,0,0,1,1.6621.1621v23.044q-2.1621-.16-5.6523-.1621-9.81,0-15.293,5.7607-5.4858,5.7627-5.4863,14.85v36.8379H613.8545V341.4092h21.7764v11.6846h.166Q645.273,340.1124,660.4,340.1113Z" transform="translate(-18.7642 -249.628)"/><path class="c" d="M733.0469,301.1631h21.7763v119.44H734.0439v-9.5742h-.332q-8.8125,10.8735-24.9355,10.8721-16.9555,0-27.9268-11.2784t-10.9717-29.4541q0-17.85,10.8877-29.4545,10.8867-11.6008,27.3457-11.6031,15.46,0,24.4366,10.2237h.499ZM697.8047,396.91q5.8168,6.0059,14.9619,6.0048A21.0264,21.0264,0,0,0,728.06,396.91q6.1479-6.0015,6.1513-15.5791a22.0641,22.0641,0,0,0-6.0683-15.9034,20.3908,20.3908,0,0,0-15.376-6.3291,19.85,19.85,0,0,0-14.8779,6.085q-5.9034,6.0864-5.9014,16.1475Q691.9873,390.9082,697.8047,396.91Z" transform="translate(-18.7642 -249.628)"/><path class="c" d="M778.7607,420.6035V305.3823H802.2v94.9361h52.53v20.2851Z" transform="translate(-18.7642 -249.628)"/><path class="c" d="M909.5869,421.9014q-19.1176,0-31.0859-11.5215t-11.9688-29.3731q0-17.8506,11.9688-29.3735,11.9693-11.5211,31.0859-11.522,18.9507,0,31.086,11.3594,12.1317,11.3613,12.1347,29.5361,0,18.1758-12.1347,29.5352Q928.5366,421.9033,909.5869,421.9014Zm0-18.9864a20.2585,20.2585,0,0,0,15.044-6.167q6.0673-6.1655,6.0683-15.7412,0-9.7383-5.9853-15.8232a20.3268,20.3268,0,0,0-15.127-6.085,19.985,19.985,0,0,0-15.21,6.2471,23.4989,23.4989,0,0,0,.083,31.24A19.9281,19.9281,0,0,0,909.5869,402.915Z" transform="translate(-18.7642 -249.628)"/><path class="c" d="M1027.9453,341.4092h21.61v70.1064q0,42.5157-42.2237,42.5186-18.62,0-33.4131-7.9522l5.1534-18.0136q13.6288,7.4633,26.2646,7.4648,10.9717,0,17.0391-5.03a15.77,15.77,0,0,0,6.0674-12.6582v-7.9521h-.4981q-8.6456,9.25-23.6055,9.25-16.9555,0-27.8447-10.8731-10.89-10.8691-10.8877-28.0742,0-17.5269,10.6387-28.8057,10.6362-11.277,26.93-11.2783,14.6265,0,24.2705,9.4121h.499Zm-34.4111,52.9853q5.8168,5.5987,14.7949,5.5987t14.7119-5.7608q5.7349-5.7582,5.7354-14.8486,0-8.9238-5.8184-14.4434a20.43,20.43,0,0,0-14.6289-5.5175q-9.1436,0-14.8779,5.5986t-5.7354,14.5244Q987.7158,388.7964,993.5342,394.3945Z" transform="translate(-18.7642 -249.628)"/><path class="c" d="M1082.8018,330.2119a13.2442,13.2442,0,0,1-9.4756-3.8135,12.532,12.532,0,0,1,0-18.3383,13.2541,13.2541,0,0,1,9.4756-3.8135,13.4579,13.4579,0,0,1,9.6416,3.8135,12.5322,12.5322,0,0,1,0,18.3383A13.4479,13.4479,0,0,1,1082.8018,330.2119ZM1071.83,420.6035V341.4092h21.7773v79.1943Z" transform="translate(-18.7642 -249.628)"/><path class="d" d="M1185.8662,420.6035l-20.7793-34.4043-.7139-.03-20.8964,34.4346h-36.7373l36.9062-58.0947-35.2441-57.1265h36.0722l20.1153,33.4307h.498l20.1143-33.4307h35.9072l-35.2422,57.1236,36.9043,58.0976Z" transform="translate(-18.7642 -249.628)"/></svg>