<svg xmlns="http://www.w3.org/2000/svg" viewBox="0 0 1215.0034 224.33"><title>GuardLogix-Logo-001-02</title><path d="M346.3779,719.3955q-26.2676,0-43.3042-15.7412-17.0419-15.7383-17.039-42.8428,0-25.8031,16.1245-42.5176,16.1227-16.7124,43.2212-16.7158a67.8605,67.8605,0,0,1,25.6,5.0313,57.1222,57.1222,0,0,1,21.2783,14.7676l-16.6235,13.6318A42.6946,42.6946,0,0,0,345.38,623.1621q-14.9612,0-24.9351,10.2236t-9.9741,27.4258q0,16.2291,9.8076,26.9395t26.0991,10.71a46.157,46.157,0,0,0,23.9375-6.4912v-17.039H343.7183V655.4561h49.039v49.6591q-8.1467,6.4923-20.6133,10.3858A85.904,85.904,0,0,1,346.3779,719.3955Z" transform="translate(-4.7671 -547.3593)" fill="#fff"/><path d="M466.8965,639.0654h21.7773V718.26H466.8965v-9.7373h-.3325q-9.3114,11.0376-24.104,11.0351-29.7583,0-29.7559-32.7812v-47.711h21.61v42.0313q0,10.7109,3.4082,15.0928,3.405,4.3814,11.2207,4.3818a16.19,16.19,0,0,0,12.7168-6.0859q5.2368-6.0866,5.2363-16.959Z" transform="translate(-4.7671 -547.3593)" fill="#fff"/><path d="M567.9668,639.0654h21.61V718.26H568.9639v-9.5743h-.4981q-8.4784,10.8736-24.27,10.8721-16.9555,0-27.8447-11.2783t-10.8877-29.4541q0-17.8506,10.8877-29.4541,10.8867-11.6016,27.3457-11.6035,15.126,0,23.7715,10.2236h.499Zm-19.7822,61.5059a19.8638,19.8638,0,0,0,14.6289-6.0049q5.9853-6.0015,5.9844-15.5791,0-9.5742-5.8184-15.9033a19.03,19.03,0,0,0-14.6279-6.3291A20.1282,20.1282,0,0,0,533.39,662.84q-5.9838,6.0866-5.9843,16.1475,0,9.5772,5.8183,15.5791Q539.0406,700.5722,548.1846,700.5713Z" transform="translate(-4.7671 -547.3593)" fill="#fff"/><path d="M657.4,637.7676a5.0343,5.0343,0,0,1,1.6621.1621v23.0439q-2.1621-.16-5.6523-.1621-9.81,0-15.293,5.7608-5.4858,5.7627-5.4863,14.85V718.26H610.8545V639.0654h21.7764V650.75h.166Q642.273,637.7686,657.4,637.7676Z" transform="translate(-4.7671 -547.3593)" fill="#fff"/><path d="M730.0469,598.8193h21.7763V718.26H731.0439v-9.5743h-.332q-8.8125,10.8736-24.9355,10.8721-16.9555,0-27.9268-11.2783t-10.9717-29.4541q0-17.8506,10.8877-29.4541,10.8867-11.6016,27.3457-11.6035,15.46,0,24.4366,10.2236h.499Zm-35.2422,95.7471q5.8168,6.0058,14.9619,6.0049a21.0264,21.0264,0,0,0,15.293-6.0049q6.1479-6.0015,6.1513-15.5791a22.0638,22.0638,0,0,0-6.0683-15.9033,20.3908,20.3908,0,0,0-15.376-6.3291,19.85,19.85,0,0,0-14.8779,6.0849q-5.9034,6.0866-5.9014,16.1475Q688.9873,688.5645,694.8047,694.5664Z" transform="translate(-4.7671 -547.3593)" fill="#fff"/><path d="M775.7607,718.26V603.0391H799.2v94.9355h52.53V718.26Z" transform="translate(-4.7671 -547.3593)" fill="#fff"/><path d="M906.5869,719.5576q-19.1176,0-31.0859-11.5215t-11.9688-29.373q0-17.8506,11.9688-29.3731,11.9693-11.5209,31.0859-11.5224,18.9507,0,31.086,11.3594,12.1317,11.3613,12.1347,29.5361,0,18.1758-12.1347,29.5351Q925.5366,719.56,906.5869,719.5576Zm0-18.9863a20.2589,20.2589,0,0,0,15.044-6.167q6.0673-6.1656,6.0683-15.7412,0-9.7383-5.9853-15.8233a20.3267,20.3267,0,0,0-15.127-6.0849,19.985,19.985,0,0,0-15.21,6.2471,23.4989,23.4989,0,0,0,.083,31.24A19.9285,19.9285,0,0,0,906.5869,700.5713Z" transform="translate(-4.7671 -547.3593)" fill="#fff"/><path d="M1024.9453,639.0654h21.61v70.1065q0,42.5155-42.2237,42.5185-18.62,0-33.4131-7.9521l5.1534-18.0137q13.6288,7.4634,26.2646,7.4649,10.9717,0,17.0391-5.03a15.77,15.77,0,0,0,6.0674-12.6582v-7.9522h-.4981q-8.6456,9.25-23.6055,9.25-16.9555,0-27.8447-10.873-10.89-10.8691-10.8877-28.0742,0-17.5269,10.6387-28.8057,10.6362-11.2764,26.93-11.2783,14.6265,0,24.2705,9.4121h.499Zm-34.4111,52.9854q5.8168,5.5986,14.7949,5.5986t14.7119-5.7607q5.7349-5.7583,5.7354-14.8487,0-8.9238-5.8184-14.4433a20.43,20.43,0,0,0-14.6289-5.5176q-9.1436,0-14.8779,5.5986t-5.7354,14.5244Q984.7158,686.4526,990.5342,692.0508Z" transform="translate(-4.7671 -547.3593)" fill="#fff"/><path d="M1079.8018,627.8682a13.2442,13.2442,0,0,1-9.4756-3.8135,12.5315,12.5315,0,0,1,0-18.3379,13.2525,13.2525,0,0,1,9.4756-3.8135,13.4562,13.4562,0,0,1,9.6416,3.8135,12.5318,12.5318,0,0,1,0,18.3379A13.4479,13.4479,0,0,1,1079.8018,627.8682ZM1068.83,718.26V639.0654h21.7773V718.26Z" transform="translate(-4.7671 -547.3593)" fill="#fff"/><path d="M1182.8662,718.26l-20.7793-34.4043-.7139-.03L1140.4766,718.26h-36.7373l36.9062-58.0948-35.2441-57.1259h36.0722l20.1153,33.4306h.498l20.1143-33.4306h35.9072l-35.2422,57.123,36.9043,58.0977Z" transform="translate(-4.7671 -547.3593)" fill="#e75f26"/><path d="M56.9172,702.4193q-13.65,13.395-27.31,26.77a110.0872,110.0872,0,0,1-1.16-137.87,113.58,113.58,0,0,1,21.54-20.98,117.1135,117.1135,0,0,1,140.81,1.1q-13.74,13.455-27.32,26.75a78.1629,78.1629,0,0,0-86.76-.59,76.1863,76.1863,0,0,0-21.33,21.23,73.36,73.36,0,0,0,1.53,83.59Z" transform="translate(-4.7671 -547.3593)" fill="#fff"/><path d="M234.5571,659.5293a110.0548,110.0548,0,0,1-26.82,72.01,113.9039,113.9039,0,0,1-22.45,20.06,117.2021,117.2021,0,0,1-133.78-1.77q13.785-13.5,27.5-26.92a78.2506,78.2506,0,0,0,79.32,1.17,76.2986,76.2986,0,0,0,22.72-19.81,73.3882,73.3882,0,0,0,3.47-84.55q13.71-13.455,27.49-26.95A109.9746,109.9746,0,0,1,234.5571,659.5293Z" transform="translate(-4.7671 -547.3593)" fill="#fff"/><path d="M196.1724,659.5229c0,41.247-34.2513,74.7-76.5358,74.7-42.2647,0-76.5359-33.4531-76.5359-74.7,0-41.2668,34.2712-74.72,76.5359-74.72C161.9211,584.8029,196.1724,618.2561,196.1724,659.5229Z" transform="translate(-4.7671 -547.3593)" fill="#4e3995"/><path d="M157.9571,659.5293c0,20.64-17.14,37.38-38.3,37.38-21.15,0-38.3-16.74-38.3-37.38,0-20.65,17.15-37.39,38.3-37.39C140.8171,622.1393,157.9571,638.8793,157.9571,659.5293Z" transform="translate(-4.7671 -547.3593)" fill="#fff"/></svg>